<svg xmlns="http://www.w3.org/2000/svg" viewBox="0 0 186.68 97.87"><defs><style>.cls-1{fill:#fff;}.cls-2{fill:#24baa3;}</style></defs><title>Outlandnish Racing</title><g id="Layer_2" data-name="Layer 2"><g id="Layer_1-2" data-name="Layer 1"><path class="cls-1" d="M111.19,81.23c3.82.06,5.48,2.54,5.48,5a4.92,4.92,0,0,1-3.56,4.46c1.4,1.36,4,5.72,4.72,7h-3.76c-.78-1.18-2.34-4.54-4.7-6.46l-1.3,0v6.42h-3.36V81.25Zm-.6,7c1.44-.12,2.62-.84,2.62-2s-.48-1.76-1.86-1.94a24.21,24.21,0,0,0-3.28-.18v4.2C108.91,88.35,109.77,88.33,110.59,88.25Z"/><path class="cls-1" d="M134.63,97.69H131l-1.34-3.34H123l-1.32,3.34h-3.64L125,81.23h2.78Zm-8.3-11.46-2.06,5h4.14Z"/><path class="cls-1" d="M144.41,97.73a7.94,7.94,0,0,1-2.3-.06,8.35,8.35,0,0,1,0-16.42,7.92,7.92,0,0,1,2.3-.06,7.65,7.65,0,0,1,4.8,2.48l-1.68,2.12a5.58,5.58,0,0,0-2.62-1.18,5,5,0,1,0,0,9.7,5,5,0,0,0,2.62-1.44L149.21,95A7.32,7.32,0,0,1,144.41,97.73Z"/><path class="cls-1" d="M154,97.69h-3.37V81.23H154Z"/><path class="cls-1" d="M156.24,81.23l2.39,1.22,7.62,8.18,0-9.4h3.34V97.69l-2.4-1.22-7.62-8.16v9.38h-3.37Z"/><path class="cls-1" d="M185.87,97.49l-1.12-.38-.14-1.46a7.72,7.72,0,0,1-5.88,2.22,8.34,8.34,0,0,1-7.95-8.3c0-5.48,3.77-8.8,8.19-8.84,3.28-.06,6,1.42,6.8,3.74L183,86a3.85,3.85,0,0,0-3.84-2.12c-2.48,0-4.86,2.12-4.86,5.6,0,2.94,2.1,5.2,4.54,5.2s4.3-1.54,4.3-3.38l-4.14,0-.4-2.74,8.06,0A32.19,32.19,0,0,1,185.87,97.49Z"/><path class="cls-1" d="M7.8,30.1,9,29.94c1.33-.18,2.4.5,3.23,2l.18.57.06,1.17a4.77,4.77,0,0,1,1.88-.65q4.17-.56,7,5.16a23.71,23.71,0,0,1,2,6.83q.66,4.83-.49,14.55a19.43,19.43,0,0,0-.75,3.94A34.67,34.67,0,0,1,19,71.16a13,13,0,0,1-2.38,3.57q-2.73,2.34-4,2.52-4.41.59-7.76-4.18c-.89-1-2-3.6-3.43-7.81-.18-1-.31-1.44-.39-1.43v-.69c-.18-1.32-.53-3.6-1-6.85A98.45,98.45,0,0,1,.38,45.1Q1.57,36.4,4.5,32.62A7.55,7.55,0,0,1,7.8,30.1ZM5.89,56.67l0,.29Q7.33,67.34,8.51,68.74c1,2.09,1.85,3.1,2.47,3l.39,0a13.2,13.2,0,0,0,2.16-3q2.54-7.45,2.42-8.31a26.72,26.72,0,0,1-3.87-5.29,25.72,25.72,0,0,1-2.69-8.21.94.94,0,0,0,0-.49c0-.07,0-.09-.1-.09v-.59q-1-7.23,2-11.12h.1v-.1L11.09,34a4.8,4.8,0,0,0,0-.88c-.11-.78-.32-1.14-.64-1.1q-3.63.5-4.81,11.79Q5.44,47.63,5.89,56.67Zm9.4-18.62a20.72,20.72,0,0,0-.41,7.16l0,.29a.09.09,0,0,1-.09.11.86.86,0,0,1,.14.27c0,.2,0,.3-.06.31A61.91,61.91,0,0,0,16.86,54H17L17,44.23a18,18,0,0,1,0-2.37C16.47,39.54,15.91,38.27,15.29,38.05Z"/><path class="cls-1" d="M38.93,43.3A2.68,2.68,0,0,1,42.15,45a9.7,9.7,0,0,1,.74,2.58c-.15,5.06-.57,8.37-1.27,9.91a6.65,6.65,0,0,0-.33,3.19l.06.44a18.51,18.51,0,0,1,.27,4.15,17.86,17.86,0,0,0,2.14,6.56l.09.65A1.19,1.19,0,0,1,42.71,74l-.29,0c-.5.07-1.55-.81-3.14-2.63a12,12,0,0,1-2.14-4.27,7.69,7.69,0,0,1-4.9,3.08l-.36,0c-2.33.31-4-1-5.07-4a29.53,29.53,0,0,1-1.1-4.48l0-.17a44.72,44.72,0,0,1,0-6.68,39.24,39.24,0,0,1,1.82-8,3.52,3.52,0,0,1,2.57-2.29v-.1c.91.09,1.41.4,1.47.91A61.12,61.12,0,0,1,31,52a91.43,91.43,0,0,0-.14,11.7,10.42,10.42,0,0,0,.43,1.69c.5-.19,1.38-1.77,2.64-4.71a7.49,7.49,0,0,0,1.15-5c-.26-1.86,0-4.81.84-8.84a5.28,5.28,0,0,1,2.52-3.4Z"/><path class="cls-1" d="M52.48,27.3l.68-.1q1.11-.15,1.59,1.56a23.65,23.65,0,0,1-.42,5.58h.09c1.19-.23,2.18-.4,3-.51l.19,0a.09.09,0,0,0,.09-.11l.2.07.2,0a.08.08,0,0,0,.08-.11l.21.07a.08.08,0,0,0,.08-.11l.21.07q2.43-.61,8.07-1.49l1,0c1.42-.33,2.61-.55,3.56-.68.57,0,.93,0,1.08-.05l0-.1a.71.71,0,0,0,.31.06,68.48,68.48,0,0,1,8.2-.52v-.1l.21.08c.19,0,.28-.08.27-.14l.5,0L84,30.42q2.42-.33,2.58.84.27,2-8.33,4A109.19,109.19,0,0,1,65.09,38.1c-1.52.13-2.43.18-2.74.18a5.72,5.72,0,0,1-1.43.39l-3.41.26c-1.56.35-2.42.53-2.59.55l-1,0a142.44,142.44,0,0,0-.38,18.29,41.23,41.23,0,0,0-.07,4.54c-.09,1.31,0,3.8.13,7.47-.18,0-.13,2.81.14,8.36a27.47,27.47,0,0,1,0,3.84c.14,1-.06,1.7-.61,2l-.58.08c-.58.08-1.05-.45-1.4-1.58a63.46,63.46,0,0,1-2.81-11.35,12.78,12.78,0,0,1-.12-3.73L48.11,67l0-.19a133.38,133.38,0,0,1,0-16.85l0-.5v-.09H48A23.58,23.58,0,0,1,45.17,54a3.52,3.52,0,0,1-1.85.94,1.7,1.7,0,0,1-.3-.75L43,54A109.37,109.37,0,0,1,47.43,40.2h-.09q-.56.07-2.31.42c-1.21.09-2,.16-2.24.2l-7.08,1.55c-1.12.15-1.87,0-2.25-.58a.86.86,0,0,1,.84-1.1,29.1,29.1,0,0,1,10.48-4.08,15,15,0,0,1,3.69-1.09l.68-.1a40.21,40.21,0,0,0,2.15-6.69A3.46,3.46,0,0,1,52.48,27.3Z"/><path class="cls-1" d="M65.8,14.45h.09Q69,14,69.55,18.18q1,7.23-4.47,17.17a6.65,6.65,0,0,0-1.78,5.06c0,5.91,0,9.09,0,9.56q-.06,1.71.8,15.37s.14.81.41,2.3c.11.83.2,1.73.27,2.73q.3,2.13,1.36,7.11l0,.29c.26,1.93.14,2.93-.38,3a1.49,1.49,0,0,1-.56.28c-.38,0-.72-.5-1-1.64q-1.7-1.66-5.47-12.76c-.1-1.25-.18-2.06-.23-2.43a20.37,20.37,0,0,1-.66-2.67l-.27-2q-.69-11.1-.25-14.16h-.1a6.21,6.21,0,0,1-4,2.32c-.33,0-.5-.08-.52-.22L52.66,47a64.92,64.92,0,0,0,4.05-6.46,3.4,3.4,0,0,0,1-3.09q1.44-12.58,3.87-18Q63.16,14.81,65.8,14.45Z"/><path class="cls-1" d="M81.82,36.85l.09,0q1.61-.21,1.71.63c.1,0,.18.24.25.76l0,.31s0,.07.1.06l-.07.18,0,.15c0,.29,0,1.76,0,4.41q.09.73.69,12.92,1.08,10.89.84,10.92a1.59,1.59,0,0,1-1,.6l-.1,0a1.15,1.15,0,0,1-1.25-.87,41.29,41.29,0,0,1-2.94-9.13c-.14-.68-.3-1.7-.49-3.09-.06-.44-.15-1.31-.28-2.62V52h-.07a18.65,18.65,0,0,1-2.56,4.06q-4.44,7.22-8.36,7.74l-.17,0A2.41,2.41,0,0,1,65.87,63,3.87,3.87,0,0,1,65,60.8a15.39,15.39,0,0,1,.68-5.68,12.91,12.91,0,0,1,1.37-3.73,21.32,21.32,0,0,1,4.81-6,11,11,0,0,1,4.91-2.64l.39,0a9.54,9.54,0,0,1,1,0C79.38,40.6,80,39.47,80,39.39c.27-1.35.67-2.06,1.19-2.13A1,1,0,0,1,81.82,36.85ZM75.51,47.23a17.66,17.66,0,0,0-3.6,4.51Q70.76,53,69.18,58h.07a30.24,30.24,0,0,0,3.46-5.59q.51-.74,2.88-5.13Z"/><path class="cls-1" d="M98.73,31.47c1.53.17,2.37.81,2.53,1.93a1,1,0,0,1,.16.47,60.35,60.35,0,0,1-.46,8.24,74.12,74.12,0,0,0,.35,16.41Q102.6,68,105.5,71.26l.18.56c.07.54-.25,1.1-1,1.71q-2.88.39-5.63-5.94A29,29,0,0,1,96,58.05c-.06,0-.15-.4-.26-1.24l-.16-1.16a47.35,47.35,0,0,1,0-8.18,9,9,0,0,0,.12-2.08l0-.1h-.09c-.41,1.85-1.1,4.5-2.08,8-.82,3.15-1.45,5.31-1.88,6.46-.53.6-.94.92-1.25,1l-.77.11C88.5,61,87.82,60,87.54,58q-.72-2.46-2.23-9.94c-1.06-4.53-1.3-7.48-.74-8.87a5.77,5.77,0,0,1,1.19-.86h.1c1.14.13,1.85,1.54,2.15,4.24a68.92,68.92,0,0,1,1.44,7.5c.07.27.4-1.06,1-4a33.93,33.93,0,0,1,4.19-9.84C96.38,33.2,97.74,31.61,98.73,31.47Z"/><path class="cls-1" d="M118.92,6.49c1-.13,1.59,0,1.93.43,1,.57,1.66,2.05,2,4.46a2.4,2.4,0,0,1,0,.4,13.46,13.46,0,0,1,.44,1.81q.92,10.93.29,12.28a62.7,62.7,0,0,1-2.34,11.85,39.25,39.25,0,0,1-3.3,7.64l-.1.7v.1q.22,1.62,3.12,10.61a30.07,30.07,0,0,1,2,4.85,20.51,20.51,0,0,1,2.34,5.6c0,.21-.23.47-.78.79q-1.23.18-3.32-3.39a49.29,49.29,0,0,1-4.71-7.15A27.48,27.48,0,0,0,115,54.62a14.61,14.61,0,0,1-.92-2.44l-.2,0a18.29,18.29,0,0,1-3.2,3.29,8.27,8.27,0,0,1-3.06,1.4c-2.42.33-4.09-.4-5-2.18l-.22-.95q-.47-3.44,3.37-10.71a14.09,14.09,0,0,1,5.12-4.44l-.17-4.9a70.48,70.48,0,0,1,1-10.49,65.23,65.23,0,0,1,4.1-13.37A7.1,7.1,0,0,1,118.92,6.49Zm-12.4,45.24.06.38c0,.13.1.19.22.17h.09c.57-.08,1.52-1.06,2.86-3,1.49-2.07,2.21-3.29,2.16-3.64l-.25-1.84c-.08-.65-.19-1-.32-.94q-2.4,1.6-4.16,6.37A5.74,5.74,0,0,0,106.52,51.73Zm12.4-37.95q-2.65,11-2.27,13.81a27.63,27.63,0,0,0-.3,5.76c.19,0,.81-3,1.85-8.93q.87-10.29.83-10.56v-.09Z"/><path class="cls-2" d="M134.39,26.64c1.53.17,2.37.81,2.53,1.92a1,1,0,0,1,.16.47,60.49,60.49,0,0,1-.46,8.25A74.12,74.12,0,0,0,137,53.69q1.29,9.53,4.19,12.73l.18.57q.1.8-1,1.71-2.88.39-5.63-5.94a29,29,0,0,1-3.07-9.54c-.06,0-.15-.41-.26-1.25l-.16-1.16a47.23,47.23,0,0,1,0-8.17,9.07,9.07,0,0,0,.12-2.09l0-.09h-.09q-.62,2.76-2.08,8-1.23,4.73-1.88,6.46c-.53.6-.94.92-1.25,1l-.77.1c-1.1.15-1.78-.77-2.06-2.77q-.72-2.47-2.23-9.95c-1.06-4.52-1.3-7.48-.74-8.87a5.56,5.56,0,0,1,1.19-.85h.1c1.14.12,1.85,1.54,2.15,4.24a68.81,68.81,0,0,1,1.44,7.49c.07.27.4-1.06,1-4a34,34,0,0,1,4.19-9.83Q132.9,26.84,134.39,26.64Z"/><path class="cls-2" d="M144.64,29.24h.1a2.89,2.89,0,0,1,2,.62,5,5,0,0,1,.21.86q.28,2.05-1.28,5.79c-.33.47-.52,2.27-.55,5.39q.49,8.73.6,12.44a31.7,31.7,0,0,1,.71,3.75c0,.66-.47,1-1.32,1.16l-.2,0c-.48.06-1.62-2.25-3.4-6.93a22.68,22.68,0,0,1-.59-2.88l0-.29a6.11,6.11,0,0,1-.06-1.17,6.58,6.58,0,0,1-.25-1.15l-.19-1.36-.09,0a6.91,6.91,0,0,1-2.88,1.27.76.76,0,0,1-.69-.69c2.7-4.83,4-7.74,3.85-8.7.36-3.39,1.15-5.76,2.38-7.13A5,5,0,0,1,144.64,29.24ZM150.14,8l.17,0a2.14,2.14,0,0,1,1.39,1.71q.33,2.43-4.78,6.76a8.7,8.7,0,0,1-3.89,2c-.58.08-.93-.29-1-1.12q-.35-2.58,3-6.09a7,7,0,0,1,3.7-2.2l.09,0c.78,0,1.19.17,1.23.48a.63.63,0,0,0,.25-.68Z"/><path class="cls-2" d="M152.78,25.85l.2,0q3.32-.45,4.53,2.14a4.83,4.83,0,0,1,.48,1.42l0,.19c.22,1.65-.18,2.78-1.21,3.42-.52.07-.86-.48-1-1.64A5.33,5.33,0,0,0,155,28.8a.76.76,0,0,0-.4,0h-.1a6.15,6.15,0,0,0-3,3.17,3.9,3.9,0,0,0-.14,1.1c.15,1.17,1.2,2.37,3.15,3.62a27.55,27.55,0,0,1,3.17,1.64l.1,0a6.06,6.06,0,0,1,1.9-.55l.38,0c1.64-.06,2.48.06,2.51.35a10.89,10.89,0,0,1-2.34,1.6l-.15.31c2.15,2.36,3.37,4.52,3.64,6.51q.53,3.88-2.42,8.31c-1.9,2.09-3.82,3.27-5.73,3.53q-4.22.57-6.41-3.66a5.29,5.29,0,0,1-.38-1.33l-.16-1.16q-.45-3.35,4-9.52a9.92,9.92,0,0,0,1.66-1.6,25.92,25.92,0,0,1-5.06-3.16,5.78,5.78,0,0,1-2-3.57Q146.78,31,150.37,27A10.08,10.08,0,0,1,152.78,25.85Zm1.07,26.75,0,.2c.09.64.43.93,1,.85l.19,0c.71-.09,1.63-1.07,2.76-2.93a8.59,8.59,0,0,0,.62-4.13,11.66,11.66,0,0,0-1.1-3,17.72,17.72,0,0,0-3.08,6.33A6.47,6.47,0,0,0,153.85,52.6Z"/><path class="cls-2" d="M171.42.14l.63-.09a3.36,3.36,0,0,1,3.52,1.4,7,7,0,0,1,.29.89L176,3q.45,3.33-4.2,10.79a13.88,13.88,0,0,0-1.82,2.39c-.42.06-.61.93-.56,2.61a65.51,65.51,0,0,0-.27,10.54l.14,6.36,0,.09h.07c.23-1.46,1.39-4.14,3.49-8.06,1.63-2.67,3.35-4.12,5.17-4.37q3.54-.48,5.15,6.15l.43,1.91q.48,9.38-.08,11.45A73.64,73.64,0,0,1,181.74,55c-.66,2.4-1.24,3.64-1.74,3.71l-.52.14c-.6.08-1-.46-1.13-1.62l-.09-.65a38.67,38.67,0,0,1,.1-7.31q-.09-.64.13-7.53c0-2.16,0-5.36.23-9.59l-.17-2.71a8,8,0,0,1-.29-1.44l-.19-.07q-2.31,3.28-4.63,17.6c-.93,4.77-1.34,7.73-1.21,8.89a62.48,62.48,0,0,0-.47,7.08,3,3,0,0,1-1.4,1.69l-.26,0a1.9,1.9,0,0,1-2.33-1.39l-2.18-7.29q-1.22-5-2.22-10.39a21.9,21.9,0,0,1-.15-3.16l-.17-.64a146.5,146.5,0,0,1-.36-16,4.67,4.67,0,0,0,.12-1.59,5.81,5.81,0,0,1-2.22.84l-.44.06c-.82.11-1.27-.11-1.34-.66l-.05-.36c0-.13.45-.69,1.39-1.69a40,40,0,0,1,3.26-3.82c-.11-.76.46-3.43,1.69-8a22.56,22.56,0,0,1,3.39-6.84,3.92,3.92,0,0,1,2.12-1.6Z"/></g></g></svg>